<?xml version="1.0" encoding="utf-8"?>
<!-- Generator: Adobe Illustrator 16.0.0, SVG Export Plug-In . SVG Version: 6.00 Build 0)  -->
<!DOCTYPE svg PUBLIC "-//W3C//DTD SVG 1.1//EN" "http://www.w3.org/Graphics/SVG/1.1/DTD/svg11.dtd">
<svg version="1.1" xmlns="http://www.w3.org/2000/svg" xmlns:xlink="http://www.w3.org/1999/xlink" x="0px" y="0px" width="792px"
	 height="612px" viewBox="0 0 792 612" enable-background="new 0 0 792 612" xml:space="preserve">
<g id="Capa_1" display="none">
	<text transform="matrix(1 0 0 1 24.0029 269.3613)" display="inline" font-family="'Montserrat-Black'" font-size="227.5725">WE</text>
	<text transform="matrix(1 0 0 1 24.0029 474.2754)" display="inline" font-family="'Montserrat-Black'" font-size="227.5725">COOK</text>
	<g display="inline">
		<g>
			<g>
				<path d="M609.492,180.261c0-2.903-2.348-5.251-5.25-5.251s-5.251,2.348-5.251,5.251c0,13.786,15.208,32.718,16.941,34.835
					c1.041,1.262,2.548,1.918,4.065,1.918c1.17,0,2.349-0.39,3.328-1.189c2.24-1.842,2.563-5.148,0.728-7.395
					C618.425,201.569,609.492,187.858,609.492,180.261z"/>
				<path d="M719.752,175.01c-2.901,0-5.25,2.348-5.25,5.251c0,7.572-8.933,21.299-14.562,28.175
					c-1.836,2.24-1.508,5.548,0.733,7.389c0.974,0.8,2.153,1.189,3.327,1.189c1.518,0,3.021-0.656,4.062-1.918
					c1.732-2.117,16.94-21.048,16.94-34.835C725.003,177.357,722.654,175.01,719.752,175.01z"/>
				<path d="M661.998,175.01c-2.902,0-5.251,2.348-5.251,5.251v31.502c0,2.902,2.349,5.251,5.251,5.251
					c2.901,0,5.25-2.349,5.25-5.251v-31.502C667.248,177.357,664.899,175.01,661.998,175.01z"/>
				<path d="M719.752,91.002c-3.182,0-6.507,0.421-9.959,1.062C698.229,78.584,681.11,70,661.998,70
					c-19.113,0-36.232,8.584-47.795,22.064c-3.454-0.642-6.779-1.062-9.961-1.062c-31.846,0-57.755,25.909-57.755,57.756
					c0,21.821,12.306,41.659,31.626,51.468l-0.103,79.347c-0.005,5.728,2.22,11.111,6.266,15.162
					c4.05,4.056,9.429,6.286,15.157,6.286h125.149c11.813,0,21.422-9.608,21.422-21.422v-79.449
					c19.248-9.835,31.503-29.642,31.503-51.392C777.508,116.911,751.599,91.002,719.752,91.002z M735.504,279.599
					c0,6.02-4.901,10.922-10.922,10.922H599.433c-2.917,0-5.661-1.139-7.728-3.205c-2.061-2.066-3.199-4.81-3.193-7.731
					l0.027-20.567h146.965V279.599z M738.755,191.977c-0.277,0.112-0.539,0.246-0.785,0.404c-0.661,0.41-1.205,0.954-1.61,1.579
					c-0.409,0.62-0.687,1.339-0.8,2.107c-0.046,0.292-0.062,0.585-0.056,0.882v51.566H588.552l0.067-51.494
					c0.006-0.287-0.01-0.58-0.051-0.862c-0.113-0.794-0.405-1.533-0.832-2.174c-0.399-0.6-0.922-1.123-1.559-1.522
					c-0.261-0.164-0.538-0.309-0.825-0.426c-17.233-7.537-28.364-24.509-28.364-43.279c0-26.059,21.197-47.255,47.254-47.255
					c1.019,0,2.094,0.123,3.148,0.206c-5.312,9.232-8.399,19.901-8.399,31.297c0,2.902,2.349,5.251,5.251,5.251
					s5.25-2.349,5.25-5.251c0-28.949,23.556-52.505,52.506-52.505c28.949,0,52.504,23.556,52.504,52.505
					c0,2.902,2.349,5.251,5.25,5.251c2.902,0,5.251-2.349,5.251-5.251c0-11.396-3.087-22.063-8.398-31.297
					c1.055-0.083,2.13-0.206,3.147-0.206c26.059,0,47.255,21.197,47.255,47.255C767.007,167.462,755.921,184.413,738.755,191.977z"
					/>
			</g>
		</g>
	</g>
</g>
<g id="Capa_1_copia">
	<linearGradient id="SVGID_1_" gradientUnits="userSpaceOnUse" x1="26.2788" y1="293.9888" x2="545.8569" y2="293.9888">
		<stop  offset="0" style="stop-color:#FDA634"/>
		<stop  offset="1" style="stop-color:#FF652C"/>
	</linearGradient>
	<path fill="url(#SVGID_1_)" d="M296.18,110.061l-50.976,159.301h-57.576l-25.715-85.112l-27.082,85.112H77.255L26.279,110.061h55.3
		l27.764,90.574l29.357-90.574h49.383l27.764,91.712l29.357-91.712H296.18z M440.459,228.854v40.508H308.012V110.061H437.5v40.508
		h-76.691v18.661h67.361v38.687h-67.361v20.937H440.459z M73.841,467.334c-13.505-7.055-24.087-16.915-31.747-29.584
		c-7.663-12.666-11.492-27.042-11.492-43.125c0-16.079,3.83-30.456,11.492-43.125c7.66-12.666,18.242-22.529,31.747-29.584
		c13.501-7.056,28.674-10.583,45.515-10.583c15.475,0,29.278,2.731,41.418,8.193c12.136,5.462,22.149,13.352,30.04,23.667
		l-33.908,30.268c-9.864-12.438-21.47-18.661-34.818-18.661c-11.229,0-20.254,3.605-27.082,10.81
		c-6.827,7.208-10.241,16.88-10.241,29.016c0,12.14,3.414,21.812,10.241,29.016c6.827,7.208,15.852,10.81,27.082,10.81
		c13.348,0,24.955-6.219,34.818-18.661l33.908,30.268c-7.89,10.318-17.903,18.205-30.04,23.667
		c-12.14,5.462-25.943,8.193-41.418,8.193C102.516,477.917,87.343,474.39,73.841,467.334z M240.194,467.221
		c-13.654-7.13-24.35-17.029-32.088-29.698c-7.737-12.666-11.606-26.968-11.606-42.897s3.869-30.229,11.606-42.897
		c7.738-12.666,18.434-22.565,32.088-29.698c13.654-7.129,29.051-10.696,46.197-10.696c17.143,0,32.543,3.567,46.197,10.696
		c13.654,7.133,24.35,17.032,32.088,29.698c7.737,12.669,11.606,26.968,11.606,42.897s-3.869,30.231-11.606,42.897
		c-7.738,12.669-18.434,22.568-32.088,29.698c-13.654,7.129-29.055,10.696-46.197,10.696
		C269.246,477.917,253.849,474.35,240.194,467.221z M304.484,429.558c5.383-3.261,9.671-7.887,12.857-13.882
		c3.186-5.992,4.779-13.008,4.779-21.051c0-8.04-1.593-15.056-4.779-21.051c-3.186-5.991-7.474-10.617-12.857-13.882
		c-5.387-3.261-11.418-4.893-18.092-4.893c-6.678,0-12.708,1.632-18.092,4.893c-5.387,3.265-9.672,7.891-12.858,13.882
		c-3.186,5.995-4.779,13.011-4.779,21.051c0,8.043,1.593,15.059,4.779,21.051c3.186,5.995,7.471,10.621,12.858,13.882
		c5.383,3.264,11.414,4.893,18.092,4.893C293.066,434.45,299.097,432.821,304.484,429.558z M433.175,467.221
		c-13.654-7.13-24.351-17.029-32.088-29.698c-7.737-12.666-11.606-26.968-11.606-42.897s3.869-30.229,11.606-42.897
		c7.737-12.666,18.434-22.565,32.088-29.698c13.654-7.129,29.051-10.696,46.197-10.696c17.143,0,32.542,3.567,46.196,10.696
		c13.655,7.133,24.351,17.032,32.088,29.698c7.738,12.669,11.606,26.968,11.606,42.897s-3.868,30.231-11.606,42.897
		c-7.737,12.669-18.433,22.568-32.088,29.698c-13.654,7.129-29.054,10.696-46.196,10.696
		C462.226,477.917,446.829,474.35,433.175,467.221z M497.464,429.558c5.383-3.261,9.672-7.887,12.857-13.882
		c3.187-5.992,4.779-13.008,4.779-21.051c0-8.04-1.593-15.056-4.779-21.051c-3.186-5.991-7.475-10.617-12.857-13.882
		c-5.388-3.261-11.418-4.893-18.092-4.893c-6.679,0-12.709,1.632-18.093,4.893c-5.387,3.265-9.672,7.891-12.857,13.882
		c-3.187,5.995-4.779,13.011-4.779,21.051c0,8.043,1.593,15.059,4.779,21.051c3.186,5.995,7.471,10.621,12.857,13.882
		c5.384,3.264,11.414,4.893,18.093,4.893C486.046,434.45,492.076,432.821,497.464,429.558z M653.69,421.479l-12.062,13.427v39.37
		h-52.797V314.975h52.797v57.804l52.342-57.804h58.486l-63.721,70.093l66.906,89.208h-62.127L653.69,421.479z"/>
	<g>
		<g>
			<g>
				<path fill="#FF652C" d="M609.492,180.261c0-2.903-2.348-5.251-5.25-5.251s-5.251,2.348-5.251,5.251
					c0,13.786,15.208,32.718,16.941,34.835c1.041,1.262,2.548,1.918,4.065,1.918c1.17,0,2.349-0.39,3.328-1.189
					c2.24-1.842,2.563-5.148,0.728-7.395C618.425,201.569,609.492,187.858,609.492,180.261z"/>
				<path fill="#FF652C" d="M719.752,175.01c-2.901,0-5.25,2.348-5.25,5.251c0,7.572-8.933,21.299-14.562,28.175
					c-1.836,2.24-1.508,5.548,0.733,7.389c0.974,0.8,2.153,1.189,3.327,1.189c1.518,0,3.021-0.656,4.062-1.918
					c1.732-2.117,16.94-21.048,16.94-34.835C725.003,177.357,722.654,175.01,719.752,175.01z"/>
				<path fill="#FF652C" d="M661.998,175.01c-2.902,0-5.251,2.348-5.251,5.251v31.502c0,2.902,2.349,5.251,5.251,5.251
					c2.901,0,5.25-2.349,5.25-5.251v-31.502C667.248,177.357,664.899,175.01,661.998,175.01z"/>
				<path fill="#FF652C" d="M719.752,91.002c-3.182,0-6.507,0.421-9.959,1.062C698.229,78.584,681.11,70,661.998,70
					c-19.113,0-36.232,8.584-47.795,22.064c-3.454-0.642-6.779-1.062-9.961-1.062c-31.846,0-57.755,25.909-57.755,57.756
					c0,21.821,12.306,41.659,31.626,51.468l-0.103,79.347c-0.005,5.728,2.22,11.111,6.266,15.162
					c4.05,4.056,9.429,6.286,15.157,6.286h125.149c11.813,0,21.422-9.608,21.422-21.422v-79.449
					c19.248-9.835,31.503-29.642,31.503-51.392C777.508,116.911,751.599,91.002,719.752,91.002z M735.504,279.599
					c0,6.02-4.901,10.922-10.922,10.922H599.433c-2.917,0-5.661-1.139-7.728-3.205c-2.061-2.066-3.199-4.81-3.193-7.731
					l0.027-20.567h146.965V279.599z M738.755,191.977c-0.277,0.112-0.539,0.246-0.785,0.404c-0.661,0.41-1.205,0.954-1.61,1.579
					c-0.409,0.62-0.687,1.339-0.8,2.107c-0.046,0.292-0.062,0.585-0.056,0.882v51.566H588.552l0.067-51.494
					c0.006-0.287-0.01-0.58-0.051-0.862c-0.113-0.794-0.405-1.533-0.832-2.174c-0.399-0.6-0.922-1.123-1.559-1.522
					c-0.261-0.164-0.538-0.309-0.825-0.426c-17.233-7.537-28.364-24.509-28.364-43.279c0-26.059,21.197-47.255,47.254-47.255
					c1.019,0,2.094,0.123,3.148,0.206c-5.312,9.232-8.399,19.901-8.399,31.297c0,2.902,2.349,5.251,5.251,5.251
					s5.25-2.349,5.25-5.251c0-28.949,23.556-52.505,52.506-52.505c28.949,0,52.504,23.556,52.504,52.505
					c0,2.902,2.349,5.251,5.25,5.251c2.902,0,5.251-2.349,5.251-5.251c0-11.396-3.087-22.063-8.398-31.297
					c1.055-0.083,2.13-0.206,3.147-0.206c26.059,0,47.255,21.197,47.255,47.255C767.007,167.462,755.921,184.413,738.755,191.977z"
					/>
			</g>
		</g>
	</g>
</g>
</svg>
